<?xml version="1.0" standalone="no"?><svg xmlns="http://www.w3.org/2000/svg" viewBox="0 0 1440 320"><path fill="#00cba9" fill-opacity="0.3" d="M0,192L30,181.3C60,171,120,149,180,154.7C240,160,300,192,360,186.7C420,181,480,139,540,122.7C600,107,660,117,720,144C780,171,840,213,900,240C960,267,1020,277,1080,261.3C1140,245,1200,203,1260,160C1320,117,1380,75,1410,53.3L1440,32L1440,0L1410,0C1380,0,1320,0,1260,0C1200,0,1140,0,1080,0C1020,0,960,0,900,0C840,0,780,0,720,0C660,0,600,0,540,0C480,0,420,0,360,0C300,0,240,0,180,0C120,0,60,0,30,0L0,0Z"></path></svg>